<?xml version="1.0" encoding="utf-8"?>
<!-- Generator: Adobe Illustrator 16.0.0, SVG Export Plug-In . SVG Version: 6.00 Build 0)  -->
<!DOCTYPE svg PUBLIC "-//W3C//DTD SVG 1.1//EN" "http://www.w3.org/Graphics/SVG/1.1/DTD/svg11.dtd">
<svg version="1.1" id="Layer_1" xmlns="http://www.w3.org/2000/svg" xmlns:xlink="http://www.w3.org/1999/xlink" x="0px" y="0px"
	 width="230px" height="80px" viewBox="0 0 230 80" enable-background="new 0 0 230 80" xml:space="preserve">
<linearGradient id="XMLID_4_" gradientUnits="userSpaceOnUse" x1="-317.9976" y1="-380.5186" x2="-259.6045" y2="-380.5186" gradientTransform="matrix(0.4579 -0.889 -0.889 -0.4579 -186.2187 -404.3376)">
	<stop  offset="0" style="stop-color:#2B3990"/>
	<stop  offset="1" style="stop-color:#008CDC"/>
</linearGradient>
<path id="XMLID_2_" fill="url(#XMLID_4_)" d="M4.48,16.7c-4.51,19.71-2.98,31.68,5.91,37.84c2.05,1.42,4.6,2.04,7.93,1.26
	C33.18,52.29,45.18,18.35,31.85,0c0,0,3.07,11.12-1.37,27.57s-8.96,22.24-15.13,22.24C11.84,49.81,1.17,36.72,4.48,16.7L4.48,16.7z"
	/>
<path fill="#FFFFFF" d="M67.85,29.12H51.1v5.05h15.19v7.34H51.1v5.09h17.21v7.34H41.56V21.78h26.29V29.12z M99.55,25.09l-3.53,7.34
	c-3.3-1.88-7.98-3.58-10.69-3.58c-1.61,0-2.66,0.55-2.66,1.74c0,4.73,16.79,1.93,16.79,13.53c0,6.84-6.06,10.09-13.26,10.09
	c-5.46,0-11.42-1.93-15.46-5.09l3.58-7.25c3.3,2.8,8.67,4.91,11.98,4.91c2.02,0,3.3-0.69,3.3-2.16c0-4.86-16.79-1.79-16.79-13.12
	c0-6.19,5.28-10.14,13.31-10.14C91.02,21.37,96.07,22.84,99.55,25.09z M131.72,27.2l-5.5,6.52c-2.02-2.57-5-4.27-7.66-4.27
	c-4.36,0-7.66,3.53-7.66,8.26c0,4.73,3.3,8.3,7.66,8.3c2.48,0,5.46-1.47,7.66-3.72l5.5,5.87c-3.49,3.76-8.76,6.19-13.63,6.19
	c-9.77,0-16.98-7.07-16.98-16.56c0-9.36,7.34-16.29,17.3-16.29C123.28,21.51,128.46,23.71,131.72,27.2z M167.32,37.84
	c0,9.45-7.43,16.52-17.53,16.52c-10.09,0-17.53-7.02-17.53-16.52c0-9.45,7.43-16.33,17.53-16.33S167.32,28.44,167.32,37.84z
	 M142.04,37.89c0,4.86,3.67,8.49,7.89,8.49c4.22,0,7.62-3.62,7.62-8.49c0-4.86-3.39-8.4-7.62-8.4
	C145.67,29.49,142.04,33.02,142.04,37.89z M189.76,53.95l-4.27-8.67h-5.05v8.67h-9.54V21.78h15c8.63,0,13.58,4.13,13.58,11.42
	c0,4.77-1.93,8.26-5.41,10.23l6.51,10.51h-10.82V53.95z M185.91,37.93c2.85,0,4.5-1.56,4.5-4.45c0-2.8-1.65-4.36-4.5-4.36h-5.46
	v8.81H185.91z M230,29.4h-9.36v24.55h-9.59V29.4h-9.31v-7.62H230V29.4z"/>
<linearGradient id="XMLID_5_" gradientUnits="userSpaceOnUse" x1="-321.6851" y1="-386.9141" x2="-259.2544" y2="-386.9141" gradientTransform="matrix(0.4579 -0.889 -0.889 -0.4579 -186.2187 -404.3376)">
	<stop  offset="0" style="stop-color:#2B3990"/>
	<stop  offset="1" style="stop-color:#00C8FF"/>
</linearGradient>
<path id="XMLID_1_" fill="url(#XMLID_5_)" d="M18.32,55.8c-3.33,0.79-5.81,0.11-8.16-1.39c-1.34-0.86-9.84-5.44-10.12-17.59
	c0,0-1.11,13.27,8.82,20.83C28.88,72.91,53.94,35.39,39.93,7.57C36.61,0.35,31.85,0,31.85,0C45.18,18.35,33.18,52.29,18.32,55.8z"/>
<path fill="#FFFFFF" d="M11.36,71.58H6.07v3.15h4.73v0.97H6.07v3.27h5.46v1H5V70.6h6.36V71.58z M27.89,79.96l-1.95-3
	c-0.2,0.02-0.4,0.03-0.61,0.03h-2.49v2.97h-1.07v-9.37h3.56c2.34,0,3.69,1.15,3.69,3.15c0,1.54-0.75,2.6-2.11,3.02l2.21,3.21H27.89z
	 M25.32,75.99c1.7,0,2.67-0.77,2.67-2.24c0-1.43-0.97-2.18-2.67-2.18h-2.49v4.42H25.32z M48.41,75.28c0,2.64-2.17,4.72-4.9,4.72
	c-2.74,0-4.92-2.08-4.92-4.72c0-2.64,2.17-4.72,4.92-4.72C46.24,70.56,48.41,72.63,48.41,75.28z M39.67,75.28
	c0,2.08,1.74,3.75,3.83,3.75s3.81-1.67,3.81-3.75c0-2.08-1.71-3.72-3.81-3.72C41.41,71.55,39.67,73.2,39.67,75.28z M64.2,71.58
	h-3.07v8.38h-1.07v-8.38h-3.05v-1h7.19V71.58z M74.86,79.96h-1.07v-9.37h1.07V79.96z M93.17,71.93l-0.64,0.77
	c-0.73-0.73-1.74-1.17-2.77-1.17c-2.11,0-3.82,1.65-3.82,3.72c0,2.07,1.7,3.74,3.82,3.74c1.03,0,2.04-0.43,2.77-1.12l0.66,0.71
	C92.25,79.46,91,80,89.7,80c-2.71,0-4.85-2.08-4.85-4.74c0-2.62,2.17-4.7,4.89-4.7C91.03,70.56,92.27,71.08,93.17,71.93z
	 M122.03,73.74c0,2.07-1.34,3.25-3.65,3.25h-2.45v2.97h-1.07v-9.37h3.52C120.69,70.59,122.03,71.74,122.03,73.74z M115.93,71.58V76
	h2.41c1.68,0,2.67-0.77,2.67-2.24c0-1.44-0.97-2.18-2.67-2.18H115.93L115.93,71.58z M137.25,77.56h-5.1l-1.04,2.4h-1.14l4.21-9.37
	h1.11l4.19,9.37h-1.17L137.25,77.56z M136.82,76.58l-2.13-4.82l-2.11,4.82H136.82z M155.12,79.96l-1.95-3
	c-0.2,0.02-0.4,0.03-0.61,0.03h-2.49v2.97H149v-9.37h3.56c2.34,0,3.69,1.15,3.69,3.15c0,1.54-0.75,2.6-2.11,3.02l2.21,3.21H155.12z
	 M152.54,75.99c1.7,0,2.67-0.77,2.67-2.24c0-1.43-0.97-2.18-2.67-2.18h-2.49v4.42H152.54z M172.62,71.58h-3.07v8.38h-1.07v-8.38
	h-3.05v-1h7.19V71.58z M190,79.96h-1.1l-5.62-7.6v7.6h-1.07v-9.37h1.11l5.62,7.62v-7.62H190V79.96L190,79.96z M207.26,71.58h-5.29
	v3.15h4.72v0.97h-4.72v3.27h5.46v1h-6.53V70.6h6.36V71.58z M223.79,79.96l-1.95-3c-0.2,0.02-0.4,0.03-0.61,0.03h-2.5v2.97h-1.07
	v-9.37h3.56c2.34,0,3.69,1.15,3.69,3.15c0,1.54-0.75,2.6-2.11,3.02l2.21,3.21H223.79z M221.21,75.99c1.7,0,2.67-0.77,2.67-2.24
	c0-1.43-0.97-2.18-2.67-2.18h-2.5v4.42H221.21z"/>
</svg>
